<svg version="1.1" id="Layer_1" xmlns="http://www.w3.org/2000/svg" xmlns:xlink="http://www.w3.org/1999/xlink" x="0px" y="0px"
	 width="100%" viewBox="0 325 930 275" enable-background="new 0 0 960 595" xml:space="preserve">
<path fill="#000000" opacity="0.000000" stroke="none" 
	d="
M553.000000,961.000000 
	C368.666656,961.000000 184.833328,961.000000 1.000000,961.000000 
	C1.000000,641.000000 1.000000,321.000000 1.000000,1.000000 
	C321.000000,1.000000 641.000000,1.000000 961.000000,1.000000 
	C961.000000,321.000000 961.000000,641.000000 961.000000,961.000000 
	C825.166687,961.000000 689.333313,961.000000 553.000000,961.000000 
M95.742203,567.991394 
	C98.096031,569.761780 100.514229,571.453308 102.793388,573.315063 
	C119.617653,587.058594 138.962479,594.262329 160.583511,594.920349 
	C175.462357,595.373169 190.022354,593.728088 203.881165,587.286987 
	C207.318237,585.689575 208.039246,584.351807 208.082169,581.106750 
	C208.140015,576.734192 208.777664,572.369263 210.082474,568.000488 
	C446.980286,568.000488 683.878113,568.000488 921.042664,568.000488 
	C920.930603,565.654724 920.853943,564.050415 920.755981,561.998901 
	C683.359985,561.998901 446.263245,561.998901 208.780182,561.232727 
	C208.398254,557.013306 208.016312,552.793884 207.619461,548.409668 
	C206.820206,548.769592 205.754990,549.100464 204.862289,549.691711 
	C203.906876,550.324524 203.225250,551.409119 202.233780,551.943176 
	C184.255692,561.626648 165.320648,564.261169 145.758957,558.170349 
	C130.225021,553.333557 119.034645,542.844727 110.439529,529.074524 
	C99.339920,511.291870 96.067818,491.937225 98.915466,471.706329 
	C101.461525,453.618042 111.428551,439.077637 126.598053,429.402283 
	C144.310745,418.104889 163.595551,414.251709 184.418610,421.857391 
	C201.222961,427.995270 213.575974,439.448059 220.485428,454.899323 
	C227.494675,470.573700 231.256454,487.749268 235.896957,504.418671 
	C239.717422,518.142395 242.742706,532.087463 246.071960,545.735840 
	C258.373901,545.735840 270.133118,545.735840 282.434113,545.735840 
	C280.224762,537.121887 278.200012,528.857361 275.980225,520.645447 
	C270.364532,499.870758 264.743866,479.096710 258.969147,458.365875 
	C253.455963,438.573914 244.200775,421.043823 227.628906,408.124756 
	C206.228851,391.441803 182.353271,383.287201 154.906494,385.882416 
	C136.974258,387.578003 120.302422,392.704407 105.859238,403.223846 
	C96.853989,409.782684 87.886909,417.252045 81.307213,426.100739 
	C68.419724,443.432495 63.401325,464.040649 62.141300,485.419281 
	C61.850155,490.359009 63.554760,495.385315 63.959366,500.402588 
	C65.458397,518.991089 71.429459,535.890869 82.456825,550.986145 
	C84.824371,554.227051 86.935387,557.655396 88.634438,561.695984 
	C82.982071,561.796387 77.315453,562.156067 71.685593,561.846863 
	C69.880608,561.747742 67.314888,560.300415 66.557999,558.754639 
	C61.166321,547.743408 54.821404,536.945007 51.343143,525.312439 
	C46.570808,509.351990 42.762550,492.837311 46.009335,475.820953 
	C47.968834,465.551239 48.774586,454.844177 52.296818,445.130707 
	C62.704151,416.429749 81.480576,394.492493 109.225533,381.071625 
	C118.558929,376.556885 128.536438,373.373718 138.696579,369.395172 
	C136.075302,358.955627 133.347641,348.092377 130.453705,336.566925 
	C124.422913,338.286072 118.501663,339.517822 112.923325,341.647736 
	C94.514969,348.676361 77.294571,357.717346 62.256226,370.815186 
	C51.043934,380.580688 41.539631,391.752289 33.664474,404.136353 
	C25.598698,416.820160 19.365225,430.610413 16.352194,445.464355 
	C14.076797,456.681854 12.102291,468.038116 11.160742,479.429077 
	C9.932446,494.289246 11.779516,509.062592 15.034782,523.634399 
	C18.267717,538.106262 23.366306,551.885681 30.573250,564.822632 
	C31.454369,566.404297 34.160618,567.847290 36.033607,567.863037 
	C55.688309,568.028381 75.345566,567.889648 95.742203,567.991394 
M665.526062,510.979614 
	C669.011841,503.244812 673.638916,495.800507 675.700073,487.703064 
	C678.390991,477.131287 678.773987,466.154358 677.161560,455.041351 
	C674.684326,437.967834 667.608215,423.155640 656.075317,410.817352 
	C640.225037,393.860321 620.863403,384.419403 596.865356,384.830414 
	C575.554077,385.195374 558.245911,393.890320 543.567505,408.215088 
	C535.734863,415.858978 529.926208,425.195923 525.606323,435.583740 
	C518.794556,451.963684 517.293518,468.855774 521.524292,485.574066 
	C527.981201,511.088837 542.450928,530.864868 567.279053,542.118347 
	C581.734192,548.670166 596.738953,550.495728 612.025269,547.820312 
	C634.975464,543.803589 652.504272,531.151917 665.526062,510.979614 
M813.412537,423.944763 
	C822.852478,435.104736 828.995422,447.598236 828.998535,462.563782 
	C829.003967,488.559479 829.000000,514.555176 829.000000,540.550842 
	C829.000000,542.309937 829.000000,544.069031 829.000000,545.682922 
	C838.363464,545.682922 847.102417,545.682922 856.000000,545.682922 
	C856.000000,520.051758 855.879700,494.736511 856.045227,469.423187 
	C856.144226,454.288544 854.065613,439.698303 846.979187,426.119080 
	C839.058044,410.940247 827.254150,399.412933 811.951050,392.191956 
	C796.624634,384.959991 780.168152,382.994354 763.306274,385.995941 
	C734.185974,391.179596 714.643616,408.027008 704.422058,435.451599 
	C701.814087,442.448883 701.525330,450.290588 699.948914,457.697083 
	C697.636475,468.562012 699.338379,479.164520 702.002563,489.640198 
	C705.996826,505.345886 713.911926,518.758179 726.085510,529.637024 
	C734.802002,537.426453 744.906311,543.161133 756.016541,545.675415 
	C765.815979,547.893127 776.242126,547.779846 786.394897,547.818787 
	C791.779541,547.839478 797.219055,546.186401 802.527039,544.861389 
	C803.890076,544.521240 805.792297,542.595581 805.839294,541.338135 
	C806.140198,533.287598 805.992798,525.220398 805.992798,516.933167 
	C794.221191,521.396423 783.069031,523.953979 770.799744,522.202576 
	C754.696106,519.903809 743.090576,511.586395 734.875427,498.284576 
	C725.734741,483.484009 724.326294,467.145294 728.127136,450.501801 
	C730.708740,439.196869 735.627380,428.757538 745.658997,421.994202 
	C750.910950,418.453247 756.686768,415.563843 762.504395,413.016113 
	C771.789307,408.949951 781.402954,409.743561 791.068909,411.968933 
	C799.393921,413.885559 806.307190,418.280243 813.412537,423.944763 
M921.000000,438.500000 
	C921.000000,397.405396 921.000000,356.310760 921.000000,315.299866 
	C911.673401,315.299866 902.934265,315.299866 894.260864,315.299866 
	C894.260864,392.663757 894.260864,469.727539 894.260864,546.500000 
	C903.192810,546.500000 911.863342,546.500000 921.000000,546.500000 
	C921.000000,511.065155 921.000000,475.282562 921.000000,438.500000 
M398.000000,532.491943 
	C398.000000,536.924866 398.000000,541.357727 398.000000,545.712402 
	C407.310669,545.712402 416.044891,545.712402 425.000000,545.712402 
	C425.000000,515.303894 424.893311,485.181732 425.090454,455.061523 
	C425.129608,449.074890 425.729462,442.953156 427.105225,437.138489 
	C432.505402,414.314392 453.977570,405.132416 474.446747,414.372528 
	C479.831146,416.803131 484.201294,421.480621 489.348083,425.360626 
	C494.507385,419.759888 500.307983,413.462952 505.991119,407.293488 
	C505.937805,406.865204 505.978638,406.646179 505.888916,406.553040 
	C503.927094,404.516968 502.050385,402.385132 499.960449,400.488617 
	C489.312347,390.825897 477.047485,384.995636 462.407196,385.008148 
	C454.741882,385.014709 447.288574,385.263123 439.695709,387.709045 
	C431.503357,390.348145 424.093719,393.698547 417.929230,399.600647 
	C404.439636,412.516113 398.308044,428.733734 398.088593,447.059174 
	C397.751587,475.200867 398.000000,503.349518 398.000000,532.491943 
M449.000000,597.553101 
	C449.000000,612.299438 449.000000,627.045776 449.000000,641.996460 
	C463.631958,641.996460 477.472382,642.416260 491.271851,641.845642 
	C500.152252,641.478394 506.374451,637.812439 506.155701,626.514099 
	C506.023407,619.681763 502.100861,616.522583 496.587555,613.894287 
	C497.201721,613.031738 497.459930,612.436340 497.907440,612.076111 
	C503.217682,607.801392 505.140106,603.435608 503.567108,599.098755 
	C500.859100,591.632629 497.245911,589.006348 489.655640,589.000977 
	C482.989746,588.996216 476.323822,589.000000 469.657928,589.000000 
	C462.889587,589.000000 456.121246,589.000000 449.570374,589.000000 
	C449.262909,589.965820 449.087952,590.269958 449.080658,590.578003 
	C449.033447,592.576050 449.022675,594.575073 449.000000,597.553101 
M274.880676,637.524841 
	C276.827759,641.565674 280.420654,642.976929 281.863037,640.175964 
	C284.467285,635.118774 286.633423,629.836975 289.016479,624.664673 
	C293.374420,615.205688 297.757172,605.758179 302.129547,596.305847 
	C303.488342,597.975159 303.957520,599.586914 303.965973,601.201050 
	C304.028809,613.189087 303.955200,625.177979 304.053528,637.165527 
	C304.066803,638.780029 304.801147,640.388550 305.201599,641.999878 
	C305.801056,641.896179 306.400543,641.792480 307.000000,641.688782 
	C307.000000,639.943970 306.999634,638.199219 307.000092,636.454407 
	C307.003754,622.634521 306.810730,608.810547 307.099182,594.996582 
	C307.232025,588.634949 307.659515,588.643860 301.639496,589.389343 
	C294.264404,605.415405 286.940735,621.329712 279.084473,638.401367 
	C270.920227,620.938965 263.474884,605.014343 256.067474,589.170837 
	C254.166489,589.170837 252.371140,589.170837 250.595963,589.170837 
	C250.384064,590.963074 250.030548,592.585083 250.025711,594.208069 
	C249.982452,608.693909 249.951645,623.180298 250.080063,637.665161 
	C250.092316,639.048401 251.211441,640.421875 251.816696,641.799866 
	C252.544235,640.377563 253.881851,638.964172 253.902939,637.531494 
	C254.074539,625.878662 253.978317,614.222107 254.023560,602.566895 
	C254.030212,600.854675 254.352463,599.143616 254.528687,597.432007 
	C254.987579,597.337463 255.446472,597.242920 255.905350,597.148315 
	C262.081665,610.405945 268.257996,623.663635 274.880676,637.524841 
M377.547363,643.000000 
	C383.150452,641.950989 389.468628,642.200195 394.210663,639.588013 
	C404.718994,633.799500 410.111481,624.404053 409.048340,611.840027 
	C408.287689,602.850708 400.078308,591.642151 391.636383,589.089844 
	C383.126434,586.517029 374.631958,586.259338 365.980560,589.004517 
	C354.925781,592.512451 345.229706,606.337585 347.093384,617.396973 
	C349.827301,633.620605 360.172180,642.217590 377.547363,643.000000 
M825.834167,617.005615 
	C828.198547,618.916626 830.805298,620.597534 832.880249,622.783325 
	C838.286987,628.478943 843.394226,634.458923 848.802368,640.153076 
	C849.569763,640.960999 851.348389,640.808472 852.658936,641.100464 
	C852.890137,640.560913 853.121338,640.021362 853.352539,639.481750 
	C848.390808,633.980042 843.359192,628.538574 838.521362,622.929993 
	C837.445068,621.682190 837.050781,619.846069 836.342407,618.280884 
	C837.689697,617.854004 839.035889,617.064819 840.384460,617.060669 
	C847.605591,617.038574 852.874939,610.502441 853.107483,605.893860 
	C853.728943,593.578064 848.646118,589.733948 841.268616,589.274658 
	C827.394897,588.410950 813.429199,589.025696 799.008362,589.025696 
	C799.008362,605.945923 798.965332,622.371887 799.110901,638.796204 
	C799.120056,639.825684 800.603943,640.841980 801.401794,641.864441 
	C801.934509,641.675903 802.467285,641.487366 803.000000,641.298889 
	C803.000000,635.231140 803.269104,629.147461 802.909729,623.101074 
	C802.650818,618.744812 804.631348,617.114502 808.486145,617.042542 
	C813.975098,616.940125 819.467224,617.006470 825.834167,617.005615 
M714.016418,609.093018 
	C714.016418,603.803528 714.016418,598.514038 714.016418,592.485657 
	C729.483215,592.485657 744.396912,592.485657 759.310608,592.485657 
	C759.460083,591.881042 759.609558,591.276489 759.759033,590.671875 
	C758.433167,590.115051 757.121887,589.122437 755.778931,589.077637 
	C750.287537,588.894409 744.786438,589.000183 739.288940,589.000061 
	C729.679077,588.999878 720.069214,589.000000 710.007812,589.000000 
	C710.007812,606.009277 709.926147,622.461121 710.199707,638.907166 
	C710.217102,639.954651 712.977844,641.821594 714.485168,641.845032 
	C729.141663,642.073242 743.803711,642.050476 758.461853,641.889343 
	C759.772766,641.874939 761.067505,640.385864 762.369812,639.581665 
	C762.129639,639.054443 761.889526,638.527222 761.649414,638.000000 
	C760.009705,638.000000 758.369934,638.000000 756.730225,638.000000 
	C744.402466,638.000000 732.069031,637.784851 719.749817,638.108215 
	C714.976379,638.233582 713.544861,636.607971 713.929626,632.079834 
	C714.266907,628.110291 714.020691,624.089294 713.994385,620.091309 
	C713.973511,616.914978 714.874939,615.756287 718.644226,615.815247 
	C731.019043,616.008606 743.405029,615.491882 755.786682,615.248108 
	C755.902405,614.553162 756.018188,613.858276 756.133972,613.163391 
	C754.811707,612.775696 753.492188,612.062500 752.166809,612.051636 
	C741.172485,611.960999 730.175842,612.084717 719.183533,611.911255 
	C717.477844,611.884399 715.790710,610.677856 714.016418,609.093018 
M662.915894,641.991333 
	C663.877869,641.305542 664.839844,640.619751 665.801880,639.934021 
	C664.794922,639.291992 663.861267,638.368591 662.761719,638.082336 
	C661.513306,637.757385 660.116455,638.000427 658.784180,638.000366 
	C648.344299,637.999695 637.904480,638.000000 626.714294,638.000000 
	C626.714294,621.343567 626.714294,605.233276 626.714294,589.122986 
	C626.053101,588.986633 625.391907,588.850342 624.730713,588.714050 
	C624.153870,590.783203 623.099182,592.847290 623.077209,594.922363 
	C622.929260,608.910156 623.114075,622.901794 622.926758,636.888611 
	C622.874512,640.788635 624.066162,642.154541 628.050110,642.076965 
	C639.370483,641.856628 650.697998,641.999146 662.915894,641.991333 
M555.000000,619.499878 
	C554.999512,610.518433 554.966492,601.536865 555.017578,592.555725 
	C555.033936,589.682373 554.567932,587.806580 551.003113,589.942444 
	C551.003113,605.996277 550.963318,622.120605 551.084473,638.243713 
	C551.093384,639.433533 552.261597,640.614624 552.890869,641.799805 
	C553.593445,640.521057 554.853088,639.263550 554.902710,637.959961 
	C555.124023,632.147095 554.999573,626.321045 555.000000,619.499878 
M921.000000,605.426392 
	C920.998840,600.941040 921.163147,596.445251 920.882507,591.977417 
	C920.810547,590.830627 919.334778,589.771973 917.882202,587.850342 
	C917.882202,598.520874 917.882202,607.487549 917.882202,616.454224 
	C918.641663,616.485901 919.401123,616.517578 920.160583,616.549255 
	C920.440430,613.164673 920.720215,609.780090 921.000000,605.426392 
M921.000000,627.656799 
	C920.998230,621.467773 920.998230,621.467773 917.114746,619.085205 
	C917.114746,625.088684 917.036560,630.583801 917.214294,636.070618 
	C917.236389,636.751892 918.617188,637.389099 919.368469,638.046692 
	C919.909119,637.202881 920.828979,636.396301 920.916382,635.507874 
	C921.141113,633.222961 920.996826,630.901672 921.000000,627.656799 
z"/>
<path fill="#F9F0F1" opacity="1.000000" stroke="none" 
	d="
M89.164581,560.997375 
	C86.935387,557.655396 84.824371,554.227051 82.456825,550.986145 
	C71.429459,535.890869 65.458397,518.991089 63.959366,500.402588 
	C63.554760,495.385315 61.850155,490.359009 62.141300,485.419281 
	C63.401325,464.040649 68.419724,443.432495 81.307213,426.100739 
	C87.886909,417.252045 96.853989,409.782684 105.859238,403.223846 
	C120.302422,392.704407 136.974258,387.578003 154.906494,385.882416 
	C182.353271,383.287201 206.228851,391.441803 227.628906,408.124756 
	C244.200775,421.043823 253.455963,438.573914 258.969147,458.365875 
	C264.743866,479.096710 270.364532,499.870758 275.980225,520.645447 
	C278.200012,528.857361 280.224762,537.121887 282.434113,545.735840 
	C270.133118,545.735840 258.373901,545.735840 246.071960,545.735840 
	C242.742706,532.087463 239.717422,518.142395 235.896957,504.418671 
	C231.256454,487.749268 227.494675,470.573700 220.485428,454.899323 
	C213.575974,439.448059 201.222961,427.995270 184.418610,421.857391 
	C163.595551,414.251709 144.310745,418.104889 126.598053,429.402283 
	C111.428551,439.077637 101.461525,453.618042 98.915466,471.706329 
	C96.067818,491.937225 99.339920,511.291870 110.439529,529.074524 
	C119.034645,542.844727 130.225021,553.333557 145.758957,558.170349 
	C165.320648,564.261169 184.255692,561.626648 202.233780,551.943176 
	C203.225250,551.409119 203.906876,550.324524 204.862289,549.691711 
	C205.754990,549.100464 206.820206,548.769592 207.619461,548.409668 
	C208.016312,552.793884 208.398254,557.013306 208.899445,562.039795 
	C209.067947,564.564941 209.117203,566.283020 209.166473,568.001099 
	C208.777664,572.369263 208.140015,576.734192 208.082169,581.106750 
	C208.039246,584.351807 207.318237,585.689575 203.881165,587.286987 
	C190.022354,593.728088 175.462357,595.373169 160.583511,594.920349 
	C138.962479,594.262329 119.617653,587.058594 102.793388,573.315063 
	C100.514229,571.453308 98.096031,569.761780 95.371010,567.553528 
	C93.054741,565.076233 91.109665,563.036804 89.164581,560.997375 
z"/>
<path fill="#F9F0F1" opacity="1.000000" stroke="none" 
	d="
M665.284058,511.267090 
	C652.504272,531.151917 634.975464,543.803589 612.025269,547.820312 
	C596.738953,550.495728 581.734192,548.670166 567.279053,542.118347 
	C542.450928,530.864868 527.981201,511.088837 521.524292,485.574066 
	C517.293518,468.855774 518.794556,451.963684 525.606323,435.583740 
	C529.926208,425.195923 535.734863,415.858978 543.567505,408.215088 
	C558.245911,393.890320 575.554077,385.195374 596.865356,384.830414 
	C620.863403,384.419403 640.225037,393.860321 656.075317,410.817352 
	C667.608215,423.155640 674.684326,437.967834 677.161560,455.041351 
	C678.773987,466.154358 678.390991,477.131287 675.700073,487.703064 
	C673.638916,495.800507 669.011841,503.244812 665.284058,511.267090 
M552.039429,488.404663 
	C555.950378,494.686981 559.141541,501.589569 563.914856,507.128784 
	C575.616577,520.708008 591.588440,525.416016 608.286865,521.485657 
	C631.092224,516.117981 646.784851,498.089844 648.873474,473.815094 
	C650.520569,454.671906 646.454407,437.084320 631.177246,423.656555 
	C620.372986,414.160217 608.020813,409.563782 593.509644,410.962280 
	C581.469482,412.122681 571.643188,417.519897 563.443970,426.093628 
	C554.694153,435.243195 549.532288,446.413788 548.220337,458.792908 
	C547.195496,468.462952 547.113220,478.474457 552.039429,488.404663 
z"/>
<path fill="#F9F0F1" opacity="1.000000" stroke="none" 
	d="
M813.159302,423.664185 
	C806.307190,418.280243 799.393921,413.885559 791.068909,411.968933 
	C781.402954,409.743561 771.789307,408.949951 762.504395,413.016113 
	C756.686768,415.563843 750.910950,418.453247 745.658997,421.994202 
	C735.627380,428.757538 730.708740,439.196869 728.127136,450.501801 
	C724.326294,467.145294 725.734741,483.484009 734.875427,498.284576 
	C743.090576,511.586395 754.696106,519.903809 770.799744,522.202576 
	C783.069031,523.953979 794.221191,521.396423 805.992798,516.933167 
	C805.992798,525.220398 806.140198,533.287598 805.839294,541.338135 
	C805.792297,542.595581 803.890076,544.521240 802.527039,544.861389 
	C797.219055,546.186401 791.779541,547.839478 786.394897,547.818787 
	C776.242126,547.779846 765.815979,547.893127 756.016541,545.675415 
	C744.906311,543.161133 734.802002,537.426453 726.085510,529.637024 
	C713.911926,518.758179 705.996826,505.345886 702.002563,489.640198 
	C699.338379,479.164520 697.636475,468.562012 699.948914,457.697083 
	C701.525330,450.290588 701.814087,442.448883 704.422058,435.451599 
	C714.643616,408.027008 734.185974,391.179596 763.306274,385.995941 
	C780.168152,382.994354 796.624634,384.959991 811.951050,392.191956 
	C827.254150,399.412933 839.058044,410.940247 846.979187,426.119080 
	C854.065613,439.698303 856.144226,454.288544 856.045227,469.423187 
	C855.879700,494.736511 856.000000,520.051758 856.000000,545.682922 
	C847.102417,545.682922 838.363464,545.682922 829.000000,545.682922 
	C829.000000,544.069031 829.000000,542.309937 829.000000,540.550842 
	C829.000000,514.555176 829.003967,488.559479 828.998535,462.563782 
	C828.995422,447.598236 822.852478,435.104736 813.159302,423.664185 
z"/>
<path fill="#D10007" opacity="1.000000" stroke="none" 
	d="
M88.899506,561.346680 
	C91.109665,563.036804 93.054741,565.076233 95.000969,567.475342 
	C75.345566,567.889648 55.688309,568.028381 36.033607,567.863037 
	C34.160618,567.847290 31.454369,566.404297 30.573250,564.822632 
	C23.366306,551.885681 18.267717,538.106262 15.034782,523.634399 
	C11.779516,509.062592 9.932446,494.289246 11.160742,479.429077 
	C12.102291,468.038116 14.076797,456.681854 16.352194,445.464355 
	C19.365225,430.610413 25.598698,416.820160 33.664474,404.136353 
	C41.539631,391.752289 51.043934,380.580688 62.256226,370.815186 
	C77.294571,357.717346 94.514969,348.676361 112.923325,341.647736 
	C118.501663,339.517822 124.422913,338.286072 130.453705,336.566925 
	C133.347641,348.092377 136.075302,358.955627 138.696579,369.395172 
	C128.536438,373.373718 118.558929,376.556885 109.225533,381.071625 
	C81.480576,394.492493 62.704151,416.429749 52.296818,445.130707 
	C48.774586,454.844177 47.968834,465.551239 46.009335,475.820953 
	C42.762550,492.837311 46.570808,509.351990 51.343143,525.312439 
	C54.821404,536.945007 61.166321,547.743408 66.557999,558.754639 
	C67.314888,560.300415 69.880608,561.747742 71.685593,561.846863 
	C77.315453,562.156067 82.982071,561.796387 88.899506,561.346680 
z"/>
<path fill="#F9F0F1" opacity="1.000000" stroke="none" 
	d="
M921.000000,439.000000 
	C921.000000,475.282562 921.000000,511.065155 921.000000,546.500000 
	C911.863342,546.500000 903.192810,546.500000 894.260864,546.500000 
	C894.260864,469.727539 894.260864,392.663757 894.260864,315.299866 
	C902.934265,315.299866 911.673401,315.299866 921.000000,315.299866 
	C921.000000,356.310760 921.000000,397.405396 921.000000,439.000000 
z"/>
<path fill="#F9F0F1" opacity="1.000000" stroke="none" 
	d="
M398.000000,531.993591 
	C398.000000,503.349518 397.751587,475.200867 398.088593,447.059174 
	C398.308044,428.733734 404.439636,412.516113 417.929230,399.600647 
	C424.093719,393.698547 431.503357,390.348145 439.695709,387.709045 
	C447.288574,385.263123 454.741882,385.014709 462.407196,385.008148 
	C477.047485,384.995636 489.312347,390.825897 499.960449,400.488617 
	C502.050385,402.385132 503.927094,404.516968 505.888916,406.553040 
	C505.978638,406.646179 505.937805,406.865204 505.991119,407.293488 
	C500.307983,413.462952 494.507385,419.759888 489.348083,425.360626 
	C484.201294,421.480621 479.831146,416.803131 474.446747,414.372528 
	C453.977570,405.132416 432.505402,414.314392 427.105225,437.138489 
	C425.729462,442.953156 425.129608,449.074890 425.090454,455.061523 
	C424.893311,485.181732 425.000000,515.303894 425.000000,545.712402 
	C416.044891,545.712402 407.310669,545.712402 398.000000,545.712402 
	C398.000000,541.357727 398.000000,536.924866 398.000000,531.993591 
z"/>
<path fill="#D10007" opacity="1.000000" stroke="none" 
	d="
M209.624466,568.000793 
	C209.117203,566.283020 209.067947,564.564941 209.092590,562.422852 
	C446.263245,561.998901 683.359985,561.998901 920.755981,561.998901 
	C920.853943,564.050415 920.930603,565.654724 921.042664,568.000488 
	C683.878113,568.000488 446.980286,568.000488 209.624466,568.000793 
z"/>
</svg>